<svg width="12" height="23" viewBox="0 0 12 23" fill="none" xmlns="http://www.w3.org/2000/svg">
<path d="M11.0484 6.63636V10.4716H0.522816V6.63636H11.0484ZM2.71742 23V5.8054C2.71742 4.54119 2.95534 3.49361 3.4312 2.66264C3.90705 1.82457 4.56756 1.19957 5.41273 0.787642C6.2579 0.368607 7.23446 0.159089 8.34242 0.159089C9.06685 0.159089 9.74867 0.215908 10.3879 0.329546C11.0342 0.436079 11.5136 0.53196 11.8261 0.617188L10.9951 4.43111C10.8034 4.36719 10.569 4.31392 10.292 4.27131C10.0221 4.22869 9.76642 4.20739 9.52495 4.20739C8.91415 4.20739 8.49512 4.34233 8.26784 4.61222C8.04057 4.8821 7.92694 5.25142 7.92694 5.72017V23H2.71742Z" fill="white"/>
</svg>
